<svg xmlns="http://www.w3.org/2000/svg" xmlns:xlink="http://www.w3.org/1999/xlink" width="82" height="80" viewBox="0 0 82 80">
    <defs>
        <linearGradient id="c" x1="68.981%" x2="37.849%" y1="100%" y2=".026%">
            <stop offset="0%" stop-color="#141414"/>
            <stop offset="99.974%" stop-color="#777"/>
        </linearGradient>
        <path id="b" d="M36.688 72.023l-4.983 2.081a6 6 0 0 1-7.437-2.416l-2.808-4.612a6 6 0 0 0-3.741-2.719l-5.254-1.245a6 6 0 0 1-4.597-6.326l.44-5.382a6 6 0 0 0-1.43-4.399L3.36 42.91a6 6 0 0 1 0-7.82l3.518-4.095a6 6 0 0 0 1.43-4.4l-.44-5.38a6 6 0 0 1 4.597-6.327l5.254-1.245a6 6 0 0 0 3.741-2.719l2.808-4.612a6 6 0 0 1 7.437-2.416l4.983 2.08a6 6 0 0 0 4.624 0l4.983-2.08a6 6 0 0 1 7.437 2.416l2.808 4.612a6 6 0 0 0 3.741 2.719l5.254 1.245a6 6 0 0 1 4.597 6.326l-.44 5.382a6 6 0 0 0 1.43 4.399l3.518 4.095a6 6 0 0 1 0 7.82l-3.518 4.095a6 6 0 0 0-1.43 4.4l.44 5.38a6 6 0 0 1-4.597 6.327l-5.254 1.245a6 6 0 0 0-3.741 2.719l-2.808 4.612a6 6 0 0 1-7.437 2.416l-4.983-2.08a6 6 0 0 0-4.624 0z"/>
        <filter id="a" width="113%" height="109.2%" x="-6.5%" y="-2%" filterUnits="objectBoundingBox">
            <feOffset dy="2" in="SourceAlpha" result="shadowOffsetOuter1"/>
            <feGaussianBlur in="shadowOffsetOuter1" result="shadowBlurOuter1" stdDeviation="2"/>
            <feColorMatrix in="shadowBlurOuter1" values="0 0 0 0 0 0 0 0 0 0 0 0 0 0 0 0 0 0 0.14338396 0"/>
        </filter>
    </defs>
    <g fill="none" fill-rule="nonzero">
        <g transform="translate(2 -1)">
            <use fill="#000" filter="url(#a)" xlink:href="#b"/>
            <use fill="url(#c)" xlink:href="#b"/>
        </g>
        <path fill="#FFF" d="M27.552 27.038h-.063l-3.801 5.103h3.864v-5.103zm0 7.56h-6.216v-2.73L27.72 23.3h2.667v8.841h1.953v2.457h-1.953V38h-2.835v-3.402zm9.247-4.011c0 .42.014.927.042 1.522a8.18 8.18 0 0 0 .262 1.722c.148.554.382 1.026.704 1.418.322.392.784.588 1.386.588.616 0 1.088-.196 1.417-.588.33-.392.567-.864.714-1.418a8.18 8.18 0 0 0 .263-1.722 33.137 33.137 0 0 0 .031-2.436 10.237 10.237 0 0 0-.294-2.226 3.436 3.436 0 0 0-.409-.997 2.253 2.253 0 0 0-.693-.714c-.28-.182-.623-.273-1.029-.273-.406 0-.745.091-1.019.273-.273.182-.496.42-.672.714a3.873 3.873 0 0 0-.409.998 7.74 7.74 0 0 0-.21 1.123c-.042.378-.067.745-.074 1.102-.007.358-.01.662-.01.914zm-2.982 0c0-1.428.143-2.628.43-3.602.288-.973.676-1.753 1.166-2.341.49-.588 1.06-1.008 1.711-1.26a5.68 5.68 0 0 1 2.069-.378c.742 0 1.438.126 2.09.378.65.252 1.224.672 1.721 1.26.498.588.89 1.368 1.176 2.341.288.974.431 2.174.431 3.602 0 1.47-.143 2.698-.43 3.686-.288.987-.68 1.774-1.177 2.362-.497.588-1.07 1.008-1.722 1.26a5.737 5.737 0 0 1-2.089.378 5.68 5.68 0 0 1-2.069-.378c-.65-.252-1.221-.672-1.711-1.26s-.878-1.375-1.166-2.362c-.287-.988-.43-2.216-.43-3.686zm23.023 4.501c0 .17.005.368.016.592.01.224.048.435.112.632s.165.365.304.504c.139.139.336.208.592.208.245 0 .44-.07.584-.208.144-.139.25-.307.32-.504s.112-.405.128-.624c.016-.219.024-.413.024-.584 0-.16-.008-.35-.024-.568a2.64 2.64 0 0 0-.12-.624 1.36 1.36 0 0 0-.296-.512c-.133-.144-.317-.216-.552-.216-.256 0-.456.064-.6.192a1.224 1.224 0 0 0-.328.48c-.075.192-.12.4-.136.624a8.606 8.606 0 0 0-.024.608zm-1.632-.016c0-.437.053-.843.16-1.216.107-.373.272-.699.496-.976.224-.277.507-.496.848-.656.341-.16.747-.24 1.216-.24.501 0 .917.083 1.248.248.33.165.6.39.808.672.208.283.355.616.44 1 .085.384.128.795.128 1.232 0 .437-.053.843-.16 1.216-.107.373-.27.699-.488.976a2.212 2.212 0 0 1-.84.648c-.341.155-.747.232-1.216.232-.49 0-.904-.08-1.24-.24a2.13 2.13 0 0 1-.816-.664 2.72 2.72 0 0 1-.448-1 5.35 5.35 0 0 1-.136-1.232zm1.232-8.624h1.36l-6.592 11.888h-1.392l6.624-11.888zm-7.856 3.328c0 .17.005.363.016.576.01.213.048.413.112.6s.165.344.304.472c.139.128.336.192.592.192.245 0 .44-.064.584-.192.144-.128.25-.285.32-.472a2.17 2.17 0 0 0 .128-.592 7.46 7.46 0 0 0 .024-.568 8.6 8.6 0 0 0-.024-.584 3.04 3.04 0 0 0-.12-.664 1.414 1.414 0 0 0-.296-.544c-.133-.15-.317-.224-.552-.224-.256 0-.456.07-.6.208-.144.139-.253.31-.328.512a2.35 2.35 0 0 0-.136.656 9.29 9.29 0 0 0-.024.624zm-1.632-.032c0-.437.053-.848.16-1.232.107-.384.272-.72.496-1.008a2.36 2.36 0 0 1 .848-.68c.341-.165.747-.248 1.216-.248.501 0 .917.085 1.248.256.33.17.6.403.808.696.208.293.355.637.44 1.032.085.395.128.81.128 1.248 0 .437-.053.84-.16 1.208a2.64 2.64 0 0 1-.488.952 2.212 2.212 0 0 1-.84.624c-.341.15-.747.224-1.216.224-.49 0-.904-.077-1.24-.232a2.124 2.124 0 0 1-.816-.64 2.57 2.57 0 0 1-.448-.976 5.248 5.248 0 0 1-.136-1.224zM28.529 50.359c0 .503.067.999.201 1.488.134.49.342.928.624 1.313.282.386.643.696 1.085.93.443.234.971.351 1.587.351.615 0 1.141-.117 1.579-.351a3.16 3.16 0 0 0 1.079-.93c.282-.385.49-.823.624-1.313a5.602 5.602 0 0 0 0-2.983 4.005 4.005 0 0 0-.624-1.306 3.16 3.16 0 0 0-1.079-.93c-.438-.234-.964-.351-1.58-.351-.615 0-1.143.117-1.585.351a3.142 3.142 0 0 0-1.086.93c-.282.385-.49.82-.624 1.306a5.578 5.578 0 0 0-.201 1.495zm-.884 0c0-.641.09-1.252.273-1.833.182-.58.454-1.094.819-1.54a3.945 3.945 0 0 1 1.371-1.066c.55-.265 1.19-.397 1.918-.397s1.364.132 1.91.396c.547.265 1.001.62 1.365 1.067.365.446.637.96.82 1.54.182.58.272 1.192.272 1.833s-.09 1.252-.273 1.833a4.504 4.504 0 0 1-.819 1.534 3.997 3.997 0 0 1-1.365 1.06c-.546.264-1.182.396-1.91.396-.729 0-1.368-.132-1.918-.397a3.98 3.98 0 0 1-1.372-1.059 4.504 4.504 0 0 1-.819-1.534 6.093 6.093 0 0 1-.273-1.833zm12.127-4.641h5.889v.754h-5.005v3.354h4.446v.754h-4.446V55h-.884v-9.282zm8.98 0h5.89v.754h-5.006v3.354h4.447v.754h-4.447V55h-.884v-9.282z"/>
    </g>
</svg>
