<?xml version="1.0" encoding="UTF-8"?>
<svg width="216px" height="24px" viewBox="0 0 216 24" version="1.1" xmlns="http://www.w3.org/2000/svg" xmlns:xlink="http://www.w3.org/1999/xlink">
    <!-- Generator: Sketch 53.1 (72631) - https://sketchapp.com -->
    <title>Group</title>
    <desc>Created with Sketch.</desc>
    <g id="Dashboard-Design-V.3-(May-15)" stroke="none" stroke-width="1" fill="none" fill-rule="evenodd">
        <g id="Group">
            <polygon id="Shape" fill="#231F20" points="53.0754098 0 46.9377049 0.0786885246 52.5639344 8.38032787 46.347541 18.2163934 52.5639344 18.0196721 55.9868852 12.5901639 62.4786885 12.5901639 59.8819672 8.77377049 61.8885246 5.62622951 56.3016393 5.62622951"></polygon>
            <polygon id="Shape" fill="#231F20" points="62.4786885 12.5901639 55.9868852 12.5901639 59.8032787 18.1770492 66.1770492 18.0983607"></polygon>
            <polygon id="Shape" fill="#231F20" points="59.5672131 0 56.3016393 5.62622951 61.8885246 5.62622951 65.4295082 0.0786885246"></polygon>
            <polygon id="Shape" fill="#231F20" points="39.1868852 4.8 34.5442623 4.8 38.557377 18.1377049 44.1442623 18.0983607"></polygon>
            <polygon id="Shape" fill="#231F20" points="31.357377 0.0393442623 24.5901639 18.0196721 30.2163934 18.0196721 34.5442623 4.8 39.1868852 4.8 37.4163934 0.0786885246"></polygon>
            <polygon id="Shape" fill="#E7262B" points="24.5508197 19.6721311 24.5508197 23.8819672 44.1442623 23.8819672 44.1442623 19.6721311"></polygon>
            <polygon id="Shape" fill="#E7262B" points="24.5508197 19.6327869 24.5508197 23.9213115 44.1836066 23.9213115 44.1836066 23.8819672 24.5901639 23.8819672 24.5901639 19.6721311 44.1836066 19.6721311 44.1836066 19.6327869"></polygon>
            <polygon id="Shape" fill="#E7262B" points="44.1836066 19.6721311 24.5901639 19.6721311 44.1442623 19.7114754 44.1442623 23.842623 24.5901639 23.8819672 44.1836066 23.8819672"></polygon>
            <polygon id="Shape" fill="#231F20" points="6.17704918 0.0393442623 0 0.0393442623 7.00327869 10.5442623 7.00327869 18.1770492 12.5508197 18.1770492 12.5508197 10.5442623 15.5016393 6.13770492 9.79672131 6.13770492"></polygon>
            <polygon id="Shape" fill="#231F20" points="19.5540984 0.0393442623 13.4163934 0.0393442623 9.79672131 6.13770492 15.5016393 6.13770492"></polygon>
            <rect id="Rectangle-path" fill="#231F20" x="68.3016393" y="0.0786885246" width="5.46885246" height="18.0590164"></rect>
            <polygon id="Shape" fill="#231F20" points="82.3081967 11.842623 77.0360656 12.157377 77.2327869 13.4557377 77.6655738 14.6360656 78.2557377 15.6590164 79.042623 16.6032787 80.104918 17.3508197 81.4819672 17.9016393 83.252459 18.2163934 85.3770492 18.3344262 86.6360656 18.295082 88.7606557 17.9016393 90.4918033 17.1540984 91.8295082 16.0918033 92.6557377 14.8721311 85.4557377 14.8721311 84.7081967 14.7934426 83.4885246 14.242623 82.5836066 12.9836066 82.4262295 12.4327869"></polygon>
            <polygon id="Shape" fill="#231F20" points="85.3377049 0.0393442623 84 0.0786885246 82.8196721 0.196721311 80.9311475 0.708196721 79.5147541 1.53442623 78.5311475 2.63606557 77.9016393 3.89508197 77.704918 5.19344262 77.8229508 6.21639344 78.5704918 7.90819672 80.1836066 9.24590164 81.3639344 9.83606557 82.7803279 10.347541 84.4721311 10.7803279 85.495082 11.0163934 86.2819672 11.252459 87.5803279 12.0786885 87.9344262 13.0229508 87.895082 13.3770492 86.9114754 14.557377 85.4557377 14.8721311 92.6557377 14.8721311 92.7737705 14.6754098 93.0885246 13.8885246 93.2459016 13.1016393 93.3245902 12.2754098 93.2459016 11.5672131 92.8918033 10.2688525 92.1836066 9.08852459 91.042623 8.10491803 89.3901639 7.27868852 88.2098361 6.8852459 86.7934426 6.53114754 84.4327869 5.98032787 83.8819672 5.82295082 82.9377049 5.1147541 82.8196721 4.72131148 82.8590164 4.44590164 83.9213115 3.42295082 84.7868852 3.3442623 92.1836066 3.3442623 92.0262295 2.91147541 90.5704918 1.29836066 88.3672131 0.354098361 86.9508197 0.118032787"></polygon>
            <polygon id="Shape" fill="#231F20" points="92.1836066 3.3442623 84.7868852 3.3442623 85.3377049 3.3442623 85.8491803 3.46229508 86.9114754 4.1704918 87.5016393 5.58688525 92.7344262 5.31147541 92.4590164 4.01311475"></polygon>
            <path d="M103,5.04394531 L108.80957,5.04394531 C109.958014,5.04394531 110.883786,5.36767254 111.586914,6.01513672 C112.290043,6.66260089 112.641602,7.57225977 112.641602,8.74414062 C112.641602,9.75195816 112.328128,10.6293908 111.701172,11.3764648 C111.074216,12.1235389 110.110358,12.4970703 108.80957,12.4970703 L104.749023,12.4970703 L104.749023,17.9550781 L103,17.9550781 L103,5.04394531 Z M110.875,8.75292969 C110.875,7.80370619 110.523441,7.15918139 109.820312,6.81933594 C109.433592,6.6376944 108.903324,6.546875 108.229492,6.546875 L104.749023,6.546875 L104.749023,11.0205078 L108.229492,11.0205078 C109.014652,11.0205078 109.651853,10.8535173 110.141113,10.5195312 C110.630374,10.1855452 110.875,9.59668391 110.875,8.75292969 Z M114.671875,8.54199219 L116.174805,8.54199219 L116.174805,10.1679688 C116.297852,9.85156092 116.599607,9.46631086 117.080078,9.01220703 C117.560549,8.5581032 118.114255,8.33105469 118.741211,8.33105469 C118.770508,8.33105469 118.820312,8.33398435 118.890625,8.33984375 C118.960938,8.34570315 119.081054,8.35742179 119.250977,8.375 L119.250977,10.0449219 C119.157226,10.0273437 119.070801,10.015625 118.991699,10.0097656 C118.912597,10.0039062 118.826172,10.0009766 118.732422,10.0009766 C117.935543,10.0009766 117.323244,10.2573217 116.895508,10.7700195 C116.467771,11.2827174 116.253906,11.8730435 116.253906,12.5410156 L116.253906,17.9550781 L114.671875,17.9550781 L114.671875,8.54199219 Z M124.541992,8.33105469 C125.209964,8.33105469 125.857419,8.4877914 126.484375,8.80126953 C127.111331,9.11474766 127.588866,9.52050532 127.916992,10.0185547 C128.2334,10.4931664 128.444335,11.0468718 128.549805,11.6796875 C128.643555,12.1132834 128.69043,12.8046828 128.69043,13.7539062 L121.791016,13.7539062 C121.820313,14.7089892 122.045896,15.4750948 122.467773,16.0522461 C122.889651,16.6293974 123.542964,16.9179688 124.427734,16.9179688 C125.25391,16.9179688 125.913083,16.6455105 126.405273,16.1005859 C126.686525,15.7841781 126.885742,15.4179708 127.00293,15.0019531 L128.558594,15.0019531 C128.517578,15.347658 128.381349,15.732908 128.149902,16.1577148 C127.918456,16.5825217 127.659181,16.9296862 127.37207,17.1992188 C126.891599,17.6679711 126.296879,17.9843742 125.587891,18.1484375 C125.207029,18.242188 124.77637,18.2890625 124.295898,18.2890625 C123.124018,18.2890625 122.130863,17.8627972 121.316406,17.0102539 C120.501949,16.1577106 120.094727,14.9638749 120.094727,13.4287109 C120.094727,11.9169846 120.504879,10.6894578 121.325195,9.74609375 C122.145512,8.80272966 123.217767,8.33105469 124.541992,8.33105469 Z M127.064453,12.4970703 C127,11.81152 126.850587,11.2636739 126.616211,10.8535156 C126.182615,10.0917931 125.458989,9.7109375 124.445312,9.7109375 C123.718746,9.7109375 123.109377,9.97314191 122.617188,10.4975586 C122.124998,11.0219753 121.864258,11.6884725 121.834961,12.4970703 L127.064453,12.4970703 Z M130.632812,8.54199219 L132.197266,8.54199219 L132.197266,9.87792969 C132.572268,9.41503675 132.912108,9.07812605 133.216797,8.8671875 C133.738284,8.50976384 134.330075,8.33105469 134.992188,8.33105469 C135.742191,8.33105469 136.345701,8.51562315 136.802734,8.88476562 C137.060548,9.09570418 137.294921,9.40624795 137.505859,9.81640625 C137.857424,9.31249748 138.270505,8.93896606 138.745117,8.69580078 C139.219729,8.4526355 139.752927,8.33105469 140.344727,8.33105469 C141.610358,8.33105469 142.471677,8.78808137 142.928711,9.70214844 C143.174806,10.1943384 143.297852,10.8564412 143.297852,11.6884766 L143.297852,17.9550781 L141.654297,17.9550781 L141.654297,11.4160156 C141.654297,10.7890594 141.49756,10.3583996 141.184082,10.1240234 C140.870604,9.88964727 140.488284,9.77246094 140.037109,9.77246094 C139.416013,9.77246094 138.88135,9.98046667 138.433105,10.3964844 C137.984861,10.8125021 137.760742,11.5068311 137.760742,12.4794922 L137.760742,17.9550781 L136.152344,17.9550781 L136.152344,11.8115234 C136.152344,11.1728484 136.076173,10.7070327 135.923828,10.4140625 C135.683593,9.97460718 135.235355,9.75488281 134.579102,9.75488281 C133.981442,9.75488281 133.437991,9.98632581 132.94873,10.4492188 C132.45947,10.9121117 132.214844,11.7499939 132.214844,12.9628906 L132.214844,17.9550781 L130.632812,17.9550781 L130.632812,8.54199219 Z M145.626953,8.5859375 L147.235352,8.5859375 L147.235352,17.9550781 L145.626953,17.9550781 L145.626953,8.5859375 Z M145.626953,5.04394531 L147.235352,5.04394531 L147.235352,6.83691406 L145.626953,6.83691406 L145.626953,5.04394531 Z M151.208008,8.54199219 L151.208008,14.7910156 C151.208008,15.2714868 151.284179,15.664061 151.436523,15.96875 C151.717775,16.5312528 152.242184,16.8125 153.009766,16.8125 C154.111334,16.8125 154.861326,16.3203174 155.259766,15.3359375 C155.476564,14.8085911 155.584961,14.0849655 155.584961,13.1650391 L155.584961,8.54199219 L157.166992,8.54199219 L157.166992,17.9550781 L155.672852,17.9550781 L155.69043,16.5664062 C155.485351,16.9238299 155.23047,17.2255847 154.925781,17.4716797 C154.322263,17.9638696 153.589848,18.2099609 152.728516,18.2099609 C151.386712,18.2099609 150.472659,17.7617232 149.986328,16.8652344 C149.722655,16.3847632 149.59082,15.7431681 149.59082,14.9404297 L149.59082,8.54199219 L151.208008,8.54199219 Z M159.636719,8.54199219 L161.201172,8.54199219 L161.201172,9.87792969 C161.576174,9.41503675 161.916014,9.07812605 162.220703,8.8671875 C162.74219,8.50976384 163.333981,8.33105469 163.996094,8.33105469 C164.746098,8.33105469 165.349607,8.51562315 165.806641,8.88476562 C166.064454,9.09570418 166.298827,9.40624795 166.509766,9.81640625 C166.86133,9.31249748 167.274412,8.93896606 167.749023,8.69580078 C168.223635,8.4526355 168.756833,8.33105469 169.348633,8.33105469 C170.614264,8.33105469 171.475584,8.78808137 171.932617,9.70214844 C172.178712,10.1943384 172.301758,10.8564412 172.301758,11.6884766 L172.301758,17.9550781 L170.658203,17.9550781 L170.658203,11.4160156 C170.658203,10.7890594 170.501466,10.3583996 170.187988,10.1240234 C169.87451,9.88964727 169.49219,9.77246094 169.041016,9.77246094 C168.419919,9.77246094 167.885256,9.98046667 167.437012,10.3964844 C166.988767,10.8125021 166.764648,11.5068311 166.764648,12.4794922 L166.764648,17.9550781 L165.15625,17.9550781 L165.15625,11.8115234 C165.15625,11.1728484 165.080079,10.7070327 164.927734,10.4140625 C164.687499,9.97460718 164.239261,9.75488281 163.583008,9.75488281 C162.985349,9.75488281 162.441897,9.98632581 161.952637,10.4492188 C161.463376,10.9121117 161.21875,11.7499939 161.21875,12.9628906 L161.21875,17.9550781 L159.636719,17.9550781 L159.636719,8.54199219 Z M186.179688,14.1054688 C186.179688,15.1953179 186.018556,16.0419892 185.696289,16.6455078 C185.09863,17.7470758 183.961922,18.2978516 182.286133,18.2978516 C181.319331,18.2978516 180.493167,18.0356472 179.807617,17.5112305 C179.122067,16.9868138 178.779297,16.0537176 178.779297,14.7119141 L178.779297,13.7890625 L180.422852,13.7890625 L180.422852,14.7119141 C180.422852,15.4150426 180.579588,15.9438459 180.893066,16.2983398 C181.206545,16.6528338 181.694333,16.8300781 182.356445,16.8300781 C183.288091,16.8300781 183.89746,16.5107454 184.18457,15.8720703 C184.360352,15.4794902 184.448242,14.7382867 184.448242,13.6484375 L184.448242,5.04394531 L186.179688,5.04394531 L186.179688,14.1054688 Z M192.367188,16.9355469 C193.416021,16.9355469 194.135252,16.5385782 194.524902,15.7446289 C194.914553,14.9506796 195.109375,14.0673877 195.109375,13.0947266 C195.109375,12.2158159 194.968751,11.5009793 194.6875,10.9501953 C194.242185,10.0830035 193.474615,9.64941406 192.384766,9.64941406 C191.417964,9.64941406 190.714846,10.018551 190.275391,10.7568359 C189.835935,11.4951209 189.616211,12.385737 189.616211,13.4287109 C189.616211,14.4306691 189.835935,15.2656217 190.275391,15.9335938 C190.714846,16.6015658 191.412105,16.9355469 192.367188,16.9355469 Z M192.428711,8.26953125 C193.641608,8.26953125 194.666988,8.67382408 195.504883,9.48242188 C196.342778,10.2910197 196.761719,11.4804609 196.761719,13.0507812 C196.761719,14.568367 196.392582,15.8222607 195.654297,16.8125 C194.916012,17.8027393 193.770516,18.2978516 192.217773,18.2978516 C190.922845,18.2978516 189.894535,17.8598677 189.132812,16.9838867 C188.37109,16.1079058 187.990234,14.931648 187.990234,13.4550781 C187.990234,11.873039 188.391598,10.6132859 189.194336,9.67578125 C189.997074,8.73827656 191.075189,8.26953125 192.428711,8.26953125 Z M198.519531,5 L200.057617,5 L200.057617,9.68457031 C200.403322,9.23339618 200.816404,8.88916134 201.296875,8.65185547 C201.777346,8.41454959 202.298825,8.29589844 202.861328,8.29589844 C204.033209,8.29589844 204.983883,8.69872644 205.713379,9.50439453 C206.442875,10.3100626 206.807617,11.498039 206.807617,13.0683594 C206.807617,14.5566481 206.447269,15.7929638 205.726562,16.7773438 C205.005856,17.7617237 204.006842,18.2539062 202.729492,18.2539062 C202.014645,18.2539062 201.411135,18.0810564 200.918945,17.7353516 C200.625975,17.5302724 200.312502,17.2021507 199.978516,16.7509766 L199.978516,17.9550781 L198.519531,17.9550781 L198.519531,5 Z M202.632812,16.8564453 C203.488286,16.8564453 204.128416,16.516605 204.553223,15.8369141 C204.978029,15.1572232 205.19043,14.2607478 205.19043,13.1474609 C205.19043,12.1572216 204.978029,11.3369173 204.553223,10.6865234 C204.128416,10.0361296 203.502934,9.7109375 202.676758,9.7109375 C201.956051,9.7109375 201.32471,9.9775364 200.782715,10.5107422 C200.24072,11.043948 199.969727,11.9228454 199.969727,13.1474609 C199.969727,14.032231 200.081054,14.7499972 200.303711,15.3007812 C200.719729,16.3378958 201.496088,16.8564453 202.632812,16.8564453 Z M209.59375,15.0019531 C209.640625,15.5292995 209.77246,15.9335923 209.989258,16.2148438 C210.387697,16.7246119 211.079097,16.9794922 212.063477,16.9794922 C212.649417,16.9794922 213.165037,16.8520521 213.610352,16.597168 C214.055666,16.3422839 214.27832,15.9482449 214.27832,15.4150391 C214.27832,15.0107402 214.099611,14.7031261 213.742188,14.4921875 C213.513671,14.3632806 213.062503,14.213868 212.388672,14.0439453 L211.131836,13.7275391 C210.329098,13.5283193 209.737307,13.3056653 209.356445,13.0595703 C208.676754,12.6318338 208.336914,12.0400428 208.336914,11.2841797 C208.336914,10.3935502 208.657712,9.67285432 209.299316,9.12207031 C209.940921,8.57128631 210.803706,8.29589844 211.887695,8.29589844 C213.305671,8.29589844 214.328122,8.7119099 214.955078,9.54394531 C215.347658,10.0712917 215.538086,10.6396454 215.526367,11.2490234 L214.032227,11.2490234 C214.00293,10.8915998 213.876954,10.5664077 213.654297,10.2734375 C213.291014,9.85741979 212.661137,9.64941406 211.764648,9.64941406 C211.166989,9.64941406 210.714357,9.76367073 210.406738,9.9921875 C210.09912,10.2207043 209.945312,10.5224591 209.945312,10.8974609 C209.945312,11.3076192 210.147459,11.635741 210.551758,11.8818359 C210.786134,12.028321 211.131834,12.157226 211.588867,12.2685547 L212.634766,12.5234375 C213.77149,12.7988295 214.533201,13.0654284 214.919922,13.3232422 C215.535159,13.7275411 215.842773,14.3632769 215.842773,15.2304688 C215.842773,16.0683636 215.524906,16.7919891 214.88916,17.4013672 C214.253415,18.0107452 213.285163,18.3154297 211.984375,18.3154297 C210.583977,18.3154297 209.592288,17.9975618 209.009277,17.3618164 C208.426267,16.726071 208.114258,15.9394578 208.073242,15.0019531 L209.59375,15.0019531 Z" id="PremiumJobs" fill="#4C4C4C" fill-rule="nonzero"></path>
        </g>
    </g>
</svg>