<svg xmlns="http://www.w3.org/2000/svg" width="104" height="26" viewBox="0 0 104 26">
    <g fill="none" fill-rule="evenodd">
        <path fill="#231F20" d="M58.856 0l-6.85.086 6.279 9.115L51.348 20l6.937-.216 3.82-5.961h7.243l-2.897-4.19 2.239-3.456h-6.235z"/>
        <path fill="#231F20" d="M69.356 14h-7.008l4.12 6 6.88-.084zM65.925 0l-3.577 6h6.12l3.88-5.912zM43.668 5h-5.32l4.598 15 6.402-.044z"/>
        <path fill="#231F20" d="M34.766 0l-7.418 20h6.167L38.26 5.296h5.09L41.406.044z"/>
        <path fill="#E7262B" d="M27.348 21v5h22v-5z"/>
        <path fill="#E7262B" d="M27.348 21v5h22v-.046H27.392v-4.909h21.956V21z"/>
        <path fill="#E7262B" d="M49.348 21h-22l21.956.047v4.905L27.348 26h22z"/>
        <path fill="#231F20" d="M7.124 0H.348l7.684 11.584V20h6.082v-8.416l3.234-4.86h-6.251z"/>
        <path fill="#231F20" d="M21.348 0H14.43l-4.082 7h6.433z"/>
        <path fill="#231F20" fill-rule="nonzero" d="M75.348 0h6v20h-6z"/>
        <path fill="#231F20" d="M91.086 13l-5.738.34.214 1.4.471 1.272.643 1.103.856 1.018 1.156.806 1.499.594 1.927.34 2.312.127 1.37-.042 2.313-.425 1.884-.806 1.456-1.145.9-1.315h-7.835l-.813-.085-1.328-.594-.99-1.358-.172-.594z"/>
        <path fill="#231F20" d="M94.657 0l-1.456.042-1.285.128-2.055.552-1.542.89-1.07 1.19-.687 1.358-.214 1.4.128 1.104.814 1.826 1.757 1.443 1.285.637 1.541.552 1.842.467 1.114.254.856.255 1.414.89.382 1.02-.043.379-1.07 1.273-1.584.34h7.836l.128-.212.343-.849.172-.849.085-.89-.085-.765-.382-1.4-.771-1.274-1.242-1.06-1.8-.891-1.284-.425-1.542-.378-2.57-.595-.6-.17-1.027-.763-.129-.425.043-.297 1.157-1.104.941-.085h8.052l-.171-.467-1.584-1.741-2.4-1.02-1.54-.255z"/>
        <path fill="#231F20" d="M101.752 4h-7.404l.553.105 1.15.632L96.689 6l5.66-.245-.298-1.158z"/>
    </g>
</svg>
